<svg xmlns="http://www.w3.org/2000/svg" width="256" height="256"><path fill-opacity=".016" d="M0 128.004v128.004l128.25-.254 128.25-.254.254-127.75L257.008 0H0v128.004m.485.496c0 70.4.119 99.053.265 63.672.146-35.38.146-92.98 0-128C.604 29.153.485 58.1.485 128.5" fill="#1976D2" fill-rule="evenodd"/><path fill-opacity=".342" d="M204 83.369c-8.186 1.649-10.779 2.732-14.959 6.25-4.909 4.13-7.371 10.463-7.341 18.881.069 19.177 6.684 25.123 31.123 27.979 7.184.84 14.185 1.954 15.559 2.476 5.197 1.976 5.686 8.644.865 11.802-1.846 1.21-5.567 1.75-14.127 2.049-10.661.372-18.9-.523-31.406-3.41l-2.787-.643.287 10.352.286 10.352 5.5 1.345c3.025.739 12.988 1.592 22.139 1.896 26.809.889 37.804-2.75 43.505-14.402 4.771-9.752 3.393-24.339-2.942-31.13-4.738-5.08-9.479-6.6-28.559-9.16-8.256-1.107-13.913-2.347-14.813-3.247-2.3-2.3-2.006-7.794.528-9.845 2.742-2.221 12.97-3.369 21.892-2.457 7.089.724 18.526 2.886 21.5 4.064 1.597.632 1.75-.189 1.75-9.379 0-11.432.244-11.076-9-13.118-8.244-1.821-31.292-2.208-39-.655M0 83.748c0 2.012 25.044 86.645 25.901 87.529.414.427 7.672.652 16.128.5l15.375-.277 6.804-22C79.294 100.716 84 85.168 84 84.11c0-.754-3.999-1.11-12.458-1.11H59.085l-1.975 6.75c-6.055 20.69-8.422 29.338-11.119 40.626C44.346 137.259 43 143.891 43 145.112c0 4.513-1.228.616-6.539-20.747-2.989-12.026-6.731-26.14-8.315-31.365l-2.879-9.5-12.634-.28C5.685 83.066 0 83.304 0 83.748M97 127.5V172h23v-20.694l14.25-.62c7.838-.34 16.05-1.125 18.25-1.743 6.245-1.754 13.311-6.763 15.967-11.317 3.191-5.473 4.947-16.141 4.205-25.557-1.408-17.884-7.93-25.283-24.678-28-3.572-.58-16.506-1.057-28.744-1.061L97 83v44.5m23-10.387v15.114l10.25-.414c15.502-.627 18.752-3.264 18.748-15.212-.003-11.284-4.325-14.384-20.248-14.524L120 102v15.113" fill="#1976D2" fill-rule="evenodd"/><path fill-opacity=".4" d="M207.5 83.131c-10.225 1.283-19.27 6.035-22.41 11.773-5.441 9.944-3.544 26.743 3.766 33.347 4.969 4.489 10.783 6.334 25.644 8.14 6.6.802 13.225 1.926 14.722 2.498 5.236 2.001 4.933 9.933-.486 12.766-4.759 2.488-28.317 2.219-38.986-.445l-7.75-1.935v19.648l3.75.988c8.255 2.176 22.151 3.336 33.25 2.776 25.153-1.268 34.652-8.019 35.789-25.433.883-13.52-3.301-21.102-13.789-24.99-3.025-1.121-11.241-2.777-18.258-3.679-15.198-1.954-17.484-2.709-18.322-6.05-1.102-4.388.345-7.539 4.201-9.15 6.392-2.671 27.284-1.542 39.985 2.159 1.82.53 2.193.093 2.739-3.215.348-2.106.638-6.404.644-9.551l.011-5.722-5.346-1.554c-10.892-3.167-25.677-4.062-39.154-2.371M3.522 95.25c7.561 25.604 18.489 62.73 20.456 69.5l2.107 7.25h30.773l1.663-5.75c.915-3.162 4.28-14.075 7.478-24.25a10085.87 10085.87 0 0 0 11.536-37c3.146-10.175 5.936-19.062 6.199-19.75.368-.959-2.425-1.25-11.99-1.25H59.273l-3.774 12.75C50.962 112.077 43 143.707 43 146.404c0 4.422-1.553-.598-7.589-24.526-3.501-13.876-7.312-28.076-8.47-31.554L24.837 84H.2l3.322 11.25M97 128v44h21.932l.284-10.75.284-10.75 16.083-.551c14.909-.511 16.492-.751 21.682-3.29 10.936-5.351 15.018-13.608 14.962-30.267-.062-18.064-4.884-26.369-17.582-30.281-6.212-1.913-9.24-2.111-32.25-2.111H97v44m22-10.998v15.17l11.43-.336c13.844-.407 16.344-1.694 18.324-9.433 1.705-6.664.663-12.904-2.803-16.787l-2.782-3.116-12.085-.334-12.084-.333v15.169" fill="#1976D2" fill-rule="evenodd"/><path fill-opacity=".445" d="M202.5 84.424c-14.629 3.669-19.795 9.957-19.782 24.076.01 9.838 1.748 15.294 6.234 19.565 4.772 4.545 11.401 6.588 25.966 8.003 16.226 1.576 18.467 2.768 17.897 9.513-.229 2.704-1.086 4.294-3.14 5.82-2.594 1.928-4.103 2.096-18.5 2.057-11.608-.032-17.269-.486-21.819-1.75-3.38-.94-6.417-1.708-6.75-1.708-.333 0-.606 4.238-.606 9.417v9.417l5.25 1.141c16.427 3.57 41.091 3.114 51.982-.961 12.436-4.652 18.286-17.351 14.761-32.042-2.694-11.229-10.501-15.734-31.154-17.973-12.7-1.377-14.867-1.858-17.089-3.788-2.348-2.041-2.324-8.382.041-10.522 4.684-4.239 21.916-4.59 37.209-.758 4.125 1.034 7.572 1.809 7.66 1.724.088-.085.296-4.134.462-8.997.256-7.498.043-8.986-1.406-9.797-6.299-3.525-36.634-5.091-47.216-2.437M1 84.883c0 .486 2.207 8.248 4.904 17.25s8.133 27.392 12.08 40.867c3.947 13.475 7.485 25.314 7.862 26.309.619 1.634 2.135 1.809 15.67 1.813l14.984.004 2.129-6.813c12.913-41.314 19.812-63.353 22.247-71.063L83.798 84l-12.149.002-12.149.001-2.889 9.749c-1.589 5.361-5.48 20.098-8.645 32.748-3.166 12.65-6.008 22.325-6.316 21.5-.308-.825-1.472-5.44-2.588-10.256-1.602-6.92-11.312-43.546-13.783-51.994-.451-1.54-1.94-1.75-12.396-1.75C6.348 84 1 84.397 1 84.883m97 42.781V171.5h21V150h11.668c22.692 0 32.307-3.67 37.803-14.428 2.897-5.669 3.029-6.476 3.029-18.5 0-8.094-.488-13.954-1.371-16.453-2.076-5.878-7.482-11.216-13.957-13.779-5.262-2.084-7.57-2.274-31.922-2.629L98 83.828v43.836m21-11.275V132h11.05c13.154 0 15.96-1.069 18.326-6.982a21.51 21.51 0 0 0 0-16.036c-2.365-5.912-5.7-7.308-18.626-7.797l-10.75-.406v15.61" fill="#1976D2" fill-rule="evenodd"/></svg>